<svg xmlns="http://www.w3.org/2000/svg" viewBox="0 0 83.55 39.2"><defs><style>.cls-1{fill:#fff;opacity:0.75;}</style></defs><g id="Layer_2" data-name="Layer 2"><g id="Layer_1-2" data-name="Layer 1"><path class="cls-1" d="M83.44,28.64c-.6-3-2-5.86-6.64-8.33s-5-2.59-5-2.59a12,12,0,0,1,2.88,4.39c.36,1.35.47,3.94-.56,5.26s-3.06,1.1-4.26.11c-1.57-1.3-4.26-6.56-5.07-7.75a12.86,12.86,0,0,0-5.56-4.37,15.87,15.87,0,0,1,1.19,3.53c.06.84.34,2.72-1.39,3.37-2.31.87-4.55-1.42-5-3.3a20.67,20.67,0,0,1,.19-5.11,14.75,14.75,0,0,0-4.77,4.24,2.18,2.18,0,0,1-3,.71,1.89,1.89,0,0,1-.42-2.1c.5-1.36,2.48-3.93,3.19-5.24a9.07,9.07,0,0,0,1.08-3c.22-1.06.42-2.26.42-2.26S48,9.44,47.15,9.32s-1.38-.79-2.3-3.76c-1.28-4.07-3-5.5-3.07-5.56S40,1.49,38.71,5.56c-.93,3-1.42,3.63-2.31,3.76s-3.61-3.08-3.61-3.08.21,1.2.42,2.26a8.9,8.9,0,0,0,1.09,3C35,12.77,37,15.34,37.48,16.7a1.87,1.87,0,0,1-.42,2.1,2.18,2.18,0,0,1-3-.71,14.66,14.66,0,0,0-4.76-4.24A20.32,20.32,0,0,1,29.5,19c-.4,1.88-2.64,4.17-4.95,3.3-1.73-.65-1.45-2.53-1.39-3.37a15.75,15.75,0,0,1,1.2-3.53,12.92,12.92,0,0,0-5.57,4.37c-.8,1.19-3.49,6.45-5.07,7.75-1.2,1-3.23,1.21-4.26-.11s-.92-3.91-.55-5.26a11.91,11.91,0,0,1,2.87-4.39s-.37.11-5,2.59-6,5.36-6.64,8.33c-.5,2.47.58,8.21,5.11,9.89,3.8,1.4,12.75.25,17.08-.29s16.36-2.46,16.36-2.46a10.79,10.79,0,0,0,3.12.71,10.9,10.9,0,0,0,3.12-.71s12,1.93,16.36,2.46,13.28,1.69,17.07.29C82.87,36.85,83.94,31.11,83.44,28.64Z"/></g></g></svg>