<svg xmlns="http://www.w3.org/2000/svg" viewBox="0 0 2500 621.69"><defs><style>.cls-1{fill:#0078b8;}.cls-2{fill:none;}</style></defs><g id="Layer_2" data-name="Layer 2"><g id="Layer_1-2" data-name="Layer 1"><text/><path class="cls-1" d="M333.07,441.55H231.61l-15.05,46H116.38l111.36-304.4H337.8l110.92,304.4H348.12Zm-23.22-71.8-27.51-84.7-27.52,84.7Z"/><path class="cls-1" d="M698.94,245.07V487.55H603.5v-37a86.24,86.24,0,0,1-29.88,27.95q-18.71,10.75-44.5,10.75-41.72,0-65.14-27.95t-23.43-75.67V245.07h95V373.62q0,17.19,9.24,27.3T569.53,411q15.9,0,24.94-10.1t9-27.3V245.07Z"/><path class="cls-1" d="M864.89,406.29v81.26H828.78q-99.75,0-99.75-99.32V324.6H698.94V245.07H729V186.59h95.45v58.48H864V324.6H824.48V390q0,8.61,4.08,12.47t13.55,3.87Z"/><path class="cls-1" d="M1108.45,271.29q23.41,28,23.43,75.67V487.55h-95V359q0-17.19-9.24-27.3t-24.72-10.11Q987,321.59,978,331.7t-9,27.3V487.55H873.49V169.4h95.44V282a86.25,86.25,0,0,1,29.88-28q18.71-10.74,44.5-10.74Q1085,243.35,1108.45,271.29Z"/><path class="cls-1" d="M1378.66,383.07H1225.17q2.14,31.4,26.23,31.39,15.46,0,22.35-14.19h101a105.1,105.1,0,0,1-21.71,46.22,116.62,116.62,0,0,1-41.71,32.24q-25.15,11.83-55.24,11.83-36.12,0-64.28-15.05A106.91,106.91,0,0,1,1148,432.3q-15.7-28.16-15.7-66t15.7-66a107,107,0,0,1,43.85-43.21q28.15-15,64.28-15t64.27,14.83a106.75,106.75,0,0,1,43.85,42.35q15.69,27.51,15.7,64.92A133.65,133.65,0,0,1,1378.66,383.07Zm-95.45-41.7q0-12-7.74-18.27t-19.34-6.24q-25.38,0-29.67,24.51Z"/><path class="cls-1" d="M1617.05,271.29q23.43,28,23.44,75.67V487.55h-95V359q0-17.19-9.24-27.3t-24.73-10.11q-15.9,0-24.93,10.11t-9,27.3V487.55h-95.45V245.07h95.45v37a86.25,86.25,0,0,1,29.88-28q18.7-10.74,44.5-10.74Q1593.62,243.35,1617.05,271.29Z"/><path class="cls-1" d="M1804.72,406.29v81.26H1768.6q-99.75,0-99.74-99.32V324.6h-30.1V245.07h30.1V186.59h95.44v58.48h39.56V324.6H1764.3V390q0,8.61,4.09,12.47t13.54,3.87Z"/><path class="cls-1" d="M1821.48,212.39q-15.06-13.32-15-33.53,0-20.64,15-34.18t40-13.55q24.51,0,39.56,13.55t15,34.18q0,20.2-15,33.53t-39.56,13.33Q1836.53,225.72,1821.48,212.39Zm87.28,32.68V487.55h-95.45V245.07Z"/><path class="cls-1" d="M1926.59,300.31a107.05,107.05,0,0,1,43.86-43.21q28.15-15,64.27-15,47.29,0,79.76,26.65t41.06,74h-101q-5.6-18.92-21.93-18.92-11.61,0-18.27,10.75t-6.66,31.82q0,21.06,6.66,31.81t18.27,10.75q16.34,0,21.93-18.92h101q-8.61,47.31-41.06,73.95t-79.76,26.66q-36.1,0-64.27-15.05a106.93,106.93,0,0,1-43.86-43.21q-15.69-28.16-15.69-66T1926.59,300.31Z"/><path class="cls-1" d="M2204.76,479.38q-26.45-11.17-41.92-31a82.61,82.61,0,0,1-17.63-44.71h91.58q1.71,10.76,9.24,15.91t19.14,5.16q7.3,0,11.6-3.23a9.61,9.61,0,0,0,4.3-7.95q0-8.16-9-11.61t-30.52-7.74q-26.23-5.16-43.21-11.18a69.76,69.76,0,0,1-29.66-20.63Q2156,347.83,2156,322a73.19,73.19,0,0,1,11.83-40.63q11.82-18.25,35-28.8t56.32-10.53q49,0,76.74,24.07t33.32,62.77h-84.7q-2.15-9.88-9-15.26T2257,308.27q-7.32,0-11.18,2.79t-3.87,8.38q0,7.32,9,11t28.8,7.52q26.22,5.16,44.29,11.61a73,73,0,0,1,31.38,22.14q13.32,15.7,13.33,43.21a64.31,64.31,0,0,1-12.47,38.69q-12.46,17.21-35.9,27.09t-54.81,9.89Q2231.19,490.56,2204.76,479.38Z"/><rect class="cls-2" width="2500" height="621.69"/></g></g></svg>